<svg width="7" height="11" viewBox="0 0 7 11" fill="none" xmlns="http://www.w3.org/2000/svg">
<path d="M6.90869 1.00046C6.90865 0.811753 6.85522 0.626907 6.75456 0.467284C6.6539 0.307661 6.51014 0.179777 6.33987 0.0984097C6.16961 0.017042 5.97979 -0.0144873 5.79237 0.00746441C5.60494 0.0294161 5.42755 0.103953 5.28069 0.222462L0.557692 4.03746C0.383578 4.17807 0.243132 4.35585 0.146648 4.55778C0.0501645 4.75971 8.7738e-05 4.98067 8.7738e-05 5.20446C8.7738e-05 5.42826 0.0501645 5.64922 0.146648 5.85115C0.243132 6.05308 0.383578 6.23086 0.557692 6.37146L5.28069 10.1845C5.42748 10.3029 5.60478 10.3774 5.79212 10.3994C5.97945 10.4214 6.16919 10.39 6.33942 10.3087C6.50965 10.2275 6.65343 10.0997 6.75416 9.94027C6.85489 9.7808 6.90846 9.59609 6.90869 9.40746L6.90869 1.00046Z" fill="black"/>
</svg>
