<svg width="7" height="11" viewBox="0 0 7 11" fill="none" xmlns="http://www.w3.org/2000/svg">
<path d="M0 9.40579C4.02553e-05 9.5945 0.0534754 9.77934 0.154131 9.93897C0.254786 10.0986 0.398554 10.2265 0.568819 10.3078C0.739084 10.3892 0.928898 10.4207 1.11633 10.3988C1.30375 10.3768 1.48114 10.3023 1.628 10.1838L6.351 6.36879C6.52511 6.22818 6.66556 6.0504 6.76204 5.84847C6.85853 5.64654 6.9086 5.42558 6.9086 5.20179C6.9086 4.97799 6.85853 4.75703 6.76204 4.5551C6.66556 4.35317 6.52511 4.17539 6.351 4.03479L1.628 0.221788C1.48121 0.103332 1.30391 0.0288073 1.11657 0.00681861C0.929236 -0.0151701 0.739499 0.0162738 0.56927 0.0975197C0.39904 0.178766 0.25526 0.3065 0.154531 0.465976C0.0538007 0.625451 0.000228753 0.810164 0 0.998788V9.40579Z" fill="black"/>
</svg>
